<svg xmlns="http://www.w3.org/2000/svg" viewBox="0 0 230.74 222.61"><defs><style>.cls-1,.cls-2{fill:none;}.cls-2{stroke:#04a0d7;stroke-linecap:round;stroke-linejoin:round;stroke-width:0;}.cls-3{fill:#04a0d7;}.cls-4{fill:#ffcd09;}</style></defs><title>Browser</title><g id="Layer_2" data-name="Layer 2"><g id="Layer_2-2" data-name="Layer 2"><path class="cls-1" d="M127.79,61.56s-42.38-2.68-46.38,42h87.67S172.41,66.89,127.79,61.56Z"/><path class="cls-2" d="M82,130.13a0,0,0,0,1,0,0"/><path class="cls-3" d="M227.17,90.84A110.22,110.22,0,0,0,213.79,59.3a103.09,103.09,0,0,0-45.88-40A324,324,0,0,0,27.85,152.5c6.73,19.65,18.46,37.43,35.34,49.8,2.35,1.73,4.8,3.33,7.3,4.82l1.7-.75q3,1.74,6.09,3.28l-1.59.87a107.68,107.68,0,0,0,27,9.31c28.62,5.79,60.12-.68,83.7-18a100.65,100.65,0,0,0,30.26-36.13c1.8-3.61,3-7.43,4.64-11.08a4.07,4.07,0,0,0,.21-.82,32.61,32.61,0,0,1-3.83,0H170.76a10,10,0,0,0-2.78,0c-1.13.46-1.8,2.46-2.66,3.65a50.49,50.49,0,0,1-11.75,11.77,46.68,46.68,0,0,1-24.06,8.41c-25.71,1.56-51.11-21.42-48.73-47.79a.64.64,0,0,1,.63-.62h145.8a10.2,10.2,0,0,0,1.78.06,13.63,13.63,0,0,0,.91-3.55C232,114.68,229.86,101.61,227.17,90.84Zm-58.09,12.71H81.41c4-44.67,46.38-42,46.38-42C172.41,66.89,169.08,103.55,169.08,103.55Z"/><path class="cls-3" d="M137.76,11.76A106.48,106.48,0,0,0,89,19.12C50.72,34.58,26.33,72.28,22.6,112.46A288.28,288.28,0,0,1,137.76,11.76Z"/><path class="cls-4" d="M72.19,206.37l-1.7.75c-16.22,7.14-39.17,14.69-51.92-2.27-5.36-7.12-6.59-16.71-5.14-25.32,1.79-10.67,8.24-19.64,13.88-28.62h0l.64-1a.14.14,0,0,1,0-.06A325.1,325.1,0,0,1,166.41,18.64l2.14-1.07h.07l.08,0c13.85-4.36,28.36-10,41.51-.33,13.4,9.84,8.84,27,4,40.15a.67.67,0,0,1-.12.2c1.28,2,2.51,4,3.66,6.1,5.33-11.06,9.06-23.41,6.68-35.74-2.16-11.22-9.21-20.56-20-24.69-19.48-7.47-46-.76-64.21,8.79h0l-.61.33a.55.55,0,0,1-.34.08A287.16,287.16,0,0,0,22.39,115.05a179.53,179.53,0,0,0-16.85,41C1.68,169.72-2.52,185,1.88,199c4.56,14.55,18.91,22.58,33.51,23.48s28.65-5.05,41.3-12l1.59-.87Q75.17,208.11,72.19,206.37Z"/></g></g></svg>