<?xml version="1.0" encoding="utf-8"?>
<!-- Generator: Adobe Illustrator 22.0.0, SVG Export Plug-In . SVG Version: 6.00 Build 0)  -->
<svg version="1.1" id="Layer_1" xmlns="http://www.w3.org/2000/svg" xmlns:xlink="http://www.w3.org/1999/xlink" x="0px" y="0px"
	 viewBox="0 0 207.9 212.3" style="enable-background:new 0 0 207.9 212.3;" xml:space="preserve">
<style type="text/css">
	.st0{fill:#fafafa;}
</style>
<title>Asset 5</title>
<path class="st0" d="M26.3,185.8h156.2c14,0,25.4-11.4,25.4-25.4V54c0-14-11.4-25.4-25.4-25.4H26.3c-14,0-25.4,11.4-25.4,25.4v106.5
	C0.9,174.4,12.3,185.8,26.3,185.8z M17.3,58.9c2.2-3.5,6.9-4.6,10.4-2.3l76.7,49l76.7-49c3.5-2.2,8.2-1.2,10.4,2.3
	c2.2,3.5,1.2,8.2-2.3,10.4l-80.8,51.6c-1.2,0.8-2.7,1.2-4.1,1.2c-1.4,0-2.8-0.4-4.1-1.2L19.6,69.3C16,67.1,15,62.4,17.3,58.9z"/>
</svg>
